<mxfile host="app.diagrams.net" modified="2023-04-15T07:08:13.615Z" agent="Mozilla/5.0 (Windows NT 10.0; Win64; x64) AppleWebKit/537.36 (KHTML, like Gecko) Chrome/110.0.0.0 Safari/537.36" etag="rFiaNR-mZ3fSiCR-134L" version="21.1.2" type="device">
  <diagram name="Trang-1" id="u6zgZST0efGvUgq2n7No">
    <mxGraphModel dx="984" dy="529" grid="1" gridSize="10" guides="1" tooltips="1" connect="1" arrows="1" fold="1" page="1" pageScale="1" pageWidth="827" pageHeight="1169" math="0" shadow="0">
      <root>
        <mxCell id="0" />
        <mxCell id="1" parent="0" />
        <mxCell id="XWsamgtPvvOBmMD-apF8-22" style="edgeStyle=orthogonalEdgeStyle;rounded=0;orthogonalLoop=1;jettySize=auto;html=1;entryX=0.5;entryY=0;entryDx=0;entryDy=0;" edge="1" parent="1" source="XWsamgtPvvOBmMD-apF8-1" target="XWsamgtPvvOBmMD-apF8-21">
          <mxGeometry relative="1" as="geometry" />
        </mxCell>
        <mxCell id="XWsamgtPvvOBmMD-apF8-1" value="Dataset" style="shape=cylinder3;whiteSpace=wrap;html=1;boundedLbl=1;backgroundOutline=1;size=15;fillColor=#f5f5f5;fontColor=#333333;strokeColor=#666666;" vertex="1" parent="1">
          <mxGeometry x="310" y="80" width="120" height="90" as="geometry" />
        </mxCell>
        <mxCell id="XWsamgtPvvOBmMD-apF8-18" style="edgeStyle=orthogonalEdgeStyle;rounded=0;orthogonalLoop=1;jettySize=auto;html=1;" edge="1" parent="1" source="XWsamgtPvvOBmMD-apF8-2" target="XWsamgtPvvOBmMD-apF8-5">
          <mxGeometry relative="1" as="geometry" />
        </mxCell>
        <mxCell id="XWsamgtPvvOBmMD-apF8-2" value="Lựa chọn thuộc tính" style="rounded=1;whiteSpace=wrap;html=1;fillColor=#dae8fc;strokeColor=#6c8ebf;" vertex="1" parent="1">
          <mxGeometry x="150" y="230" width="120" height="60" as="geometry" />
        </mxCell>
        <mxCell id="XWsamgtPvvOBmMD-apF8-19" style="edgeStyle=orthogonalEdgeStyle;rounded=0;orthogonalLoop=1;jettySize=auto;html=1;entryX=0;entryY=0.5;entryDx=0;entryDy=0;" edge="1" parent="1" source="XWsamgtPvvOBmMD-apF8-3" target="XWsamgtPvvOBmMD-apF8-5">
          <mxGeometry relative="1" as="geometry" />
        </mxCell>
        <mxCell id="XWsamgtPvvOBmMD-apF8-3" value="Làm sạch dữ liệu" style="rounded=1;whiteSpace=wrap;html=1;fillColor=#dae8fc;strokeColor=#6c8ebf;" vertex="1" parent="1">
          <mxGeometry x="150" y="310" width="120" height="60" as="geometry" />
        </mxCell>
        <mxCell id="XWsamgtPvvOBmMD-apF8-5" value="Chuyển đổi dữ liệu" style="rounded=1;whiteSpace=wrap;html=1;fillColor=#dae8fc;strokeColor=#6c8ebf;" vertex="1" parent="1">
          <mxGeometry x="430" y="270" width="120" height="60" as="geometry" />
        </mxCell>
        <mxCell id="XWsamgtPvvOBmMD-apF8-6" value="&lt;u&gt;&lt;font style=&quot;font-size: 14px;&quot;&gt;Tiền xử lý dữ liệu&lt;/font&gt;&lt;/u&gt;" style="text;html=1;align=center;verticalAlign=middle;resizable=0;points=[];autosize=1;strokeColor=none;fillColor=none;" vertex="1" parent="1">
          <mxGeometry x="305" y="200" width="130" height="30" as="geometry" />
        </mxCell>
        <mxCell id="XWsamgtPvvOBmMD-apF8-9" value="&lt;u&gt;&lt;font style=&quot;font-size: 14px;&quot;&gt;Phân nhóm RFM&lt;/font&gt;&lt;/u&gt;" style="text;html=1;align=center;verticalAlign=middle;resizable=0;points=[];autosize=1;strokeColor=none;fillColor=none;" vertex="1" parent="1">
          <mxGeometry x="284" y="440" width="130" height="30" as="geometry" />
        </mxCell>
        <mxCell id="XWsamgtPvvOBmMD-apF8-31" style="edgeStyle=orthogonalEdgeStyle;rounded=0;orthogonalLoop=1;jettySize=auto;html=1;entryX=1;entryY=0.5;entryDx=0;entryDy=0;" edge="1" parent="1" source="XWsamgtPvvOBmMD-apF8-21" target="XWsamgtPvvOBmMD-apF8-24">
          <mxGeometry relative="1" as="geometry">
            <Array as="points">
              <mxPoint x="660" y="300" />
              <mxPoint x="660" y="500" />
            </Array>
          </mxGeometry>
        </mxCell>
        <mxCell id="XWsamgtPvvOBmMD-apF8-38" style="edgeStyle=orthogonalEdgeStyle;rounded=0;orthogonalLoop=1;jettySize=auto;html=1;entryX=1;entryY=0.5;entryDx=0;entryDy=0;" edge="1" parent="1" source="XWsamgtPvvOBmMD-apF8-21" target="XWsamgtPvvOBmMD-apF8-30">
          <mxGeometry relative="1" as="geometry">
            <Array as="points">
              <mxPoint x="740" y="300" />
              <mxPoint x="740" y="815" />
            </Array>
          </mxGeometry>
        </mxCell>
        <mxCell id="XWsamgtPvvOBmMD-apF8-21" value="" style="swimlane;startSize=0;fillColor=#dae8fc;strokeColor=#6c8ebf;" vertex="1" parent="1">
          <mxGeometry x="130" y="190" width="480" height="220" as="geometry" />
        </mxCell>
        <mxCell id="XWsamgtPvvOBmMD-apF8-35" style="edgeStyle=orthogonalEdgeStyle;rounded=0;orthogonalLoop=1;jettySize=auto;html=1;exitX=0;exitY=0.5;exitDx=0;exitDy=0;entryX=0;entryY=0.5;entryDx=0;entryDy=0;" edge="1" parent="1" source="XWsamgtPvvOBmMD-apF8-24" target="XWsamgtPvvOBmMD-apF8-34">
          <mxGeometry relative="1" as="geometry">
            <Array as="points">
              <mxPoint x="80" y="500" />
              <mxPoint x="80" y="640" />
            </Array>
          </mxGeometry>
        </mxCell>
        <mxCell id="XWsamgtPvvOBmMD-apF8-24" value="" style="swimlane;startSize=0;" vertex="1" parent="1">
          <mxGeometry x="120" y="430" width="490" height="140" as="geometry" />
        </mxCell>
        <mxCell id="XWsamgtPvvOBmMD-apF8-11" value="Dán nhãn cho từng nhóm" style="rounded=1;whiteSpace=wrap;html=1;fillColor=#d5e8d4;strokeColor=#82b366;" vertex="1" parent="XWsamgtPvvOBmMD-apF8-24">
          <mxGeometry x="15" y="50" width="150" height="60" as="geometry" />
        </mxCell>
        <mxCell id="XWsamgtPvvOBmMD-apF8-25" style="edgeStyle=orthogonalEdgeStyle;rounded=0;orthogonalLoop=1;jettySize=auto;html=1;entryX=1;entryY=0.5;entryDx=0;entryDy=0;" edge="1" parent="XWsamgtPvvOBmMD-apF8-24" source="XWsamgtPvvOBmMD-apF8-10" target="XWsamgtPvvOBmMD-apF8-11">
          <mxGeometry relative="1" as="geometry" />
        </mxCell>
        <mxCell id="XWsamgtPvvOBmMD-apF8-10" value="Phân nhóm từng giá trị R, F, M" style="rounded=1;whiteSpace=wrap;html=1;fillColor=#d5e8d4;strokeColor=#82b366;" vertex="1" parent="XWsamgtPvvOBmMD-apF8-24">
          <mxGeometry x="315" y="50" width="120" height="60" as="geometry" />
        </mxCell>
        <mxCell id="XWsamgtPvvOBmMD-apF8-36" style="edgeStyle=orthogonalEdgeStyle;rounded=0;orthogonalLoop=1;jettySize=auto;html=1;entryX=0.5;entryY=1;entryDx=0;entryDy=0;" edge="1" parent="1" source="XWsamgtPvvOBmMD-apF8-30" target="XWsamgtPvvOBmMD-apF8-34">
          <mxGeometry relative="1" as="geometry" />
        </mxCell>
        <mxCell id="XWsamgtPvvOBmMD-apF8-30" value="" style="swimlane;startSize=0;" vertex="1" parent="1">
          <mxGeometry x="90" y="730" width="620" height="170" as="geometry" />
        </mxCell>
        <mxCell id="XWsamgtPvvOBmMD-apF8-12" value="&lt;u&gt;&lt;font style=&quot;font-size: 14px;&quot;&gt;Phân cụm với thuật toán K-means&lt;/font&gt;&lt;/u&gt;" style="text;html=1;align=center;verticalAlign=middle;resizable=0;points=[];autosize=1;strokeColor=none;fillColor=none;" vertex="1" parent="XWsamgtPvvOBmMD-apF8-30">
          <mxGeometry x="160" y="25" width="240" height="30" as="geometry" />
        </mxCell>
        <mxCell id="XWsamgtPvvOBmMD-apF8-13" value="Chuẩn hoá dữ liệu" style="rounded=1;whiteSpace=wrap;html=1;fillColor=#fff2cc;strokeColor=#d6b656;" vertex="1" parent="XWsamgtPvvOBmMD-apF8-30">
          <mxGeometry y="70" width="120" height="60" as="geometry" />
        </mxCell>
        <mxCell id="XWsamgtPvvOBmMD-apF8-14" value="Tìm số K cụm bằng phương pháp Elbow Curve" style="rounded=1;whiteSpace=wrap;html=1;fillColor=#fff2cc;strokeColor=#d6b656;" vertex="1" parent="XWsamgtPvvOBmMD-apF8-30">
          <mxGeometry x="190" y="70" width="180" height="60" as="geometry" />
        </mxCell>
        <mxCell id="XWsamgtPvvOBmMD-apF8-16" style="edgeStyle=orthogonalEdgeStyle;rounded=0;orthogonalLoop=1;jettySize=auto;html=1;entryX=0;entryY=0.5;entryDx=0;entryDy=0;" edge="1" parent="XWsamgtPvvOBmMD-apF8-30" source="XWsamgtPvvOBmMD-apF8-13" target="XWsamgtPvvOBmMD-apF8-14">
          <mxGeometry relative="1" as="geometry" />
        </mxCell>
        <mxCell id="XWsamgtPvvOBmMD-apF8-15" value="Đánh giá hiệu quả phân cụm bằng thuật toán Sihouete" style="rounded=1;whiteSpace=wrap;html=1;fillColor=#fff2cc;strokeColor=#d6b656;" vertex="1" parent="XWsamgtPvvOBmMD-apF8-30">
          <mxGeometry x="420" y="70" width="180" height="60" as="geometry" />
        </mxCell>
        <mxCell id="XWsamgtPvvOBmMD-apF8-17" style="edgeStyle=orthogonalEdgeStyle;rounded=0;orthogonalLoop=1;jettySize=auto;html=1;" edge="1" parent="XWsamgtPvvOBmMD-apF8-30" source="XWsamgtPvvOBmMD-apF8-14" target="XWsamgtPvvOBmMD-apF8-15">
          <mxGeometry relative="1" as="geometry" />
        </mxCell>
        <mxCell id="XWsamgtPvvOBmMD-apF8-34" value="&lt;font style=&quot;font-size: 13px;&quot;&gt;Trực quan hoá và phân tích kết quả sau khi phân cụm&lt;/font&gt;" style="rounded=1;whiteSpace=wrap;html=1;fillColor=#e1d5e7;strokeColor=#9673a6;" vertex="1" parent="1">
          <mxGeometry x="217.5" y="610" width="365" height="60" as="geometry" />
        </mxCell>
      </root>
    </mxGraphModel>
  </diagram>
</mxfile>
